:SAMPLES-PER-SECOND 30
:FULLY-SPECIFIED
:DEGREES
128
root  17.7779 35.2804 2.70612 -29.4734 -83.1295 28.4094
RightUpLeg  -29.4521 -7.52978 -1.00562
RightLeg  53.0704 -1.36789 -2.36376
RightFoot  -21.7187 -0.44581 -3.29244
RightToes  1.45519e-009 0 -3.6325e-017
Spine  31.1105 -1.67289 7.08425
Spine1  3.73963 -0.24254 0.304744
HEad  -34.7818 -3.79569 -3.74824
LeftShoulder1  0.377223 2.22819 -23.2503
LeftArm  6.74265 -18.9807 -65.501
LeftForeArm  78.5481 -79.5192 -86.5764
LeftHand  -0.0190888 5.45384 6.62217
RightShoulder  -0.106949 -3.81725 25.1473
RightArm  11.4645 5.87614 48.1167
RightForeArm  158.191 69.6418 152.304
RightHand  -0.113202 5.76783 -1.5005
LeftUpLeg  -37.1813 6.09771 0.901082
LeftLeg  64.4477 -2.5275 -5.10782
LeftFoot  -8.89026 0.185211 -6.16215
LeftToes  -2.53752e-010 -2.07034e-011 -2.70101e-011
129
root  17.0062 35.5357 2.65788 -34.6165 -83.4158 33.5197
RightUpLeg  -27.4487 -7.63007 -1.37362
RightLeg  52.0594 -1.0646 -1.86078
RightFoot  -22.3898 -0.46712 -3.25953
RightToes  1.45519e-009 0 -3.6325e-017
Spine  30.9886 -1.37887 6.52363
Spine1  3.88628 -0.0367334 -0.178001
HEad  -34.7201 -3.56083 -3.89073
LeftShoulder1  0.36063 2.27563 -23.0313
LeftArm  6.36887 -18.7854 -65.4708
LeftForeArm  81.3764 -79.5724 -88.5957
LeftHand  -0.0142617 5.58792 5.7405
RightShoulder  -0.160858 -3.98357 25.5071
RightArm  11.8748 6.12622 47.9984
RightForeArm  158.409 69.4172 152.644
RightHand  -0.0841302 5.84491 -1.19619
LeftUpLeg  -38.1373 6.93025 -0.0404579
LeftLeg  57.4714 -3.46388 -5.3303
LeftFoot  -8.64716 0.206855 -6.5942
LeftToes  -2.53752e-010 -2.07034e-011 -2.70101e-011
130
root  16.295 35.6519 2.66067 -37.3916 -83.5131 36.3055
RightUpLeg  -25.9679 -8.14603 -1.64793
RightLeg  51.7581 -0.716119 -1.36401
RightFoot  -23.241 -0.509685 -3.38346
RightToes  1.45519e-009 0 -3.6325e-017
Spine  30.9666 -1.39899 6.33267
Spine1  4.17477 -0.00367395 -0.766003
HEad  -35.3845 -3.25307 -3.74772
LeftShoulder1  0.332263 2.3745 -23.0933
LeftArm  5.91721 -19.0515 -65.4899
LeftForeArm  82.2891 -79.5739 -89.5264
LeftHand  -0.00219957 5.80299 6.1424
RightShoulder  -0.157681 -3.97421 25.4123
RightArm  12.1616 6.10498 48.3792
RightForeArm  158.134 69.3056 152.76
RightHand  -0.0981166 6.21662 -1.31854
LeftUpLeg  -39.0244 7.33011 -0.802322
LeftLeg  50.2306 -4.18457 -4.93839
LeftFoot  -8.14235 0.253278 -7.32224
LeftToes  -2.53752e-010 -2.07034e-011 -2.70101e-011
131
root  15.6262 35.6714 2.64713 -41.9302 -84.2103 41.2204
RightUpLeg  -25.2815 -7.62937 -1.53321
RightLeg  51.8869 -0.657144 -1.28634
RightFoot  -24.0899 -0.53195 -3.29618
RightToes  1.45519e-009 0 -3.6325e-017
Spine  30.8195 -1.08248 5.94829
Spine1  4.59826 0.301661 -1.07888
HEad  -35.5402 -2.95542 -4.06654
LeftShoulder1  0.281721 2.55014 -23.2129
LeftArm  5.53804 -19.216 -65.4903
LeftForeArm  85.0156 -79.5641 -92.312
LeftHand  0.0267418 6.33125 6.59724
RightShoulder  -0.0886235 -3.7618 24.8812
RightArm  12.3052 6.30249 48.9826
RightForeArm  158.25 69.2452 152.857
RightHand  -0.119378 5.86999 -1.55658
LeftUpLeg  -39.9614 8.07146 -1.16641
LeftLeg  42.8099 -4.54525 -4.11658
LeftFoot  -6.6274 0.370693 -7.99847
LeftToes  -2.53752e-010 -2.07034e-011 -2.70101e-011
132
root  14.971 35.5938 2.72187 -43.5629 -84.5143 43.1355
RightUpLeg  -24.8173 -8.09164 -1.62435
RightLeg  52.7443 -0.358332 -0.901971
RightFoot  -25.0849 -0.588846 -3.47953
RightToes  1.45519e-009 0 -3.6325e-017
Spine  30.9261 -1.25629 5.84474
Spine1  4.70812 0.15252 -1.37702
HEad  -35.7897 -2.82419 -4.46711
LeftShoulder1  0.266455 2.59879 -23.121
LeftArm  4.798 -19.2342 -65.4615
LeftForeArm  87.6528 -79.5491 -94.7243
LeftHand  0.0203317 6.31249 5.96246
RightShoulder  -0.0756526 -3.72012 24.8528
RightArm  12.858 6.75746 49.3726
RightForeArm  158.194 69.5125 152.484
RightHand  -0.12335 5.77684 -1.60504
LeftUpLeg  -40.5521 8.00511 -1.53114
LeftLeg  35.469 -4.3744 -2.98678
LeftFoot  -4.67741 0.56148 -9.14886
LeftToes  -2.53752e-010 -2.07034e-011 -2.70101e-011
133
root  14.3384 35.4043 2.79445 -48.2233 -85.2704 48.2283
RightUpLeg  -24.8599 -7.64851 -1.45287
RightLeg  54.1399 -0.195325 -0.70403
RightFoot  -26.4089 -0.599432 -3.1749
RightToes  1.45519e-009 0 -3.6325e-017
Spine  31.2423 -1.23326 5.71993
Spine1  4.7898 0.312049 -1.85353
HEad  -36.5803 -2.4633 -4.36529
LeftShoulder1  0.275983 2.55538 -22.7736
LeftArm  4.0263 -19.297 -65.7771
LeftForeArm  88.9904 -79.5452 -95.7681
LeftHand  0.0214792 6.31994 6.0733
RightShoulder  -0.069752 -3.70098 24.8908
RightArm  13.2045 7.00311 49.9415
RightForeArm  158.014 69.9709 151.809
RightHand  -0.0927161 5.37312 -1.3172
LeftUpLeg  -41.3098 8.427 -1.70516
LeftLeg  29.406 -3.7976 -1.97348
LeftFoot  -3.00915 0.732144 -9.79922
LeftToes  -2.53752e-010 -2.07034e-011 -2.70101e-011
134
root  13.6917 35.1458 2.89217 -56.9422 -86.1545 57.2037
RightUpLeg  -24.8663 -6.80507 -1.28236
RightLeg  55.9133 -0.160471 -0.690233
RightFoot  -27.8531 -0.60549 -2.87534
RightToes  1.45519e-009 0 -3.6325e-017
Spine  31.7715 -0.983107 5.10996
Spine1  5.1747 0.44353 -1.54395
HEad  -37.4218 -2.13758 -4.70438
LeftShoulder1  0.236682 2.70261 -23.2341
LeftArm  3.49148 -19.9569 -65.5631
LeftForeArm  89.5313 -79.5153 -96.6105
LeftHand  0.0068626 5.96171 6.44863
RightShoulder  -0.0848328 -3.74788 24.9407
RightArm  13.591 7.50764 50.3504
RightForeArm  157.033 70.5401 150.826
RightHand  -0.0686874 5.92408 -1.03237
LeftUpLeg  -42.0618 9.26091 -1.97488
LeftLeg  25.7398 -2.9315 -1.19735
LeftFoot  -2.3629 0.791534 -9.85584
LeftToes  -2.53752e-010 -2.07034e-011 -2.70101e-011
135
root  13.0171 34.7757 3.05453 -64.1575 -86.5898 64.7734
RightUpLeg  -25.2246 -6.46733 -1.41218
RightLeg  58.4425 -0.0748062 -0.60673
RightFoot  -29.5877 -0.536453 -2.08904
RightToes  1.45519e-009 0 -3.6325e-017
Spine  32.3816 -1.10451 5.09898
Spine1  5.03472 0.528404 -2.20719
HEad  -37.65 -2.19268 -4.20572
LeftShoulder1  0.304106 2.45241 -22.5514
LeftArm  2.89149 -20.3882 -66.1471
LeftForeArm  87.8357 -79.5365 -95.0719
LeftHand  -0.0105743 5.61736 6.50578
RightShoulder  -0.136565 -3.90357 25.7912
RightArm  13.7158 7.44138 50.1479
RightForeArm  156.032 70.9429 150.051
RightHand  -0.0697797 6.04389 -1.04006
LeftUpLeg  -43.3436 9.07254 -2.34779
LeftLeg  25.4691 -2.54006 -0.985036
LeftFoot  -1.43201 0.763671 -8.77129
LeftToes  -2.53752e-010 -2.07034e-011 -2.70101e-011
136
root  12.2912 34.3987 3.2573 -76.1688 -87.0123 77.0651
RightUpLeg  -25.3493 -5.90391 -1.62269
RightLeg  60.8474 -0.0148543 -0.552129
RightFoot  -31.2945 -0.440848 -1.29318
RightToes  1.45519e-009 0 -3.6325e-017
Spine  32.6307 -1.05404 4.63013
Spine1  5.54985 0.57831 -2.31763
HEad  -38.007 -2.07342 -3.78454
LeftShoulder1  0.29557 2.47666 -22.4108
LeftArm  2.21287 -20.9827 -66.462
LeftForeArm  85.8583 -79.5555 -93.1569
LeftHand  1.57211e-005 5.85677 6.27513
RightShoulder  -0.107766 -3.81369 25.7353
RightArm  13.8116 6.85849 50.5542
RightForeArm  155.386 71.3044 149.364
RightHand  -0.097469 5.98997 -1.32614
LeftUpLeg  -45.083 8.39027 -2.44269
LeftLeg  28.7299 -2.75699 -1.28961
LeftFoot  1.87666 0.520381 -4.70575
LeftToes  -2.53752e-010 -2.07034e-011 -2.70101e-011
137
root  11.4816 34.0153 3.49455 -90.0149 -87.3804 91.1216
RightUpLeg  -24.9245 -5.40517 -1.82039
RightLeg  62.8611 0.056516 -0.44053
RightFoot  -33.4048 -0.295194 -0.361516
RightToes  1.45519e-009 0 -3.6325e-017
Spine  33.2619 -0.850486 4.09456
Spine1  5.22196 0.490877 -1.71501
HEad  -38.2051 -2.07649 -3.58792
LeftShoulder1  0.302878 2.46823 -22.9141
LeftArm  2.0127 -21.684 -66.6054
LeftForeArm  82.0406 -79.5907 -88.8968
LeftHand  0.0109244 6.1481 5.75424
RightShoulder  -0.0523452 -3.64117 25.6316
RightArm  14.0113 5.99762 50.6331
RightForeArm  154.529 71.7306 148.503
RightHand  -0.137245 5.67137 -1.7565
LeftUpLeg  -46.8175 7.57137 -2.0741
LeftLeg  33.1578 -2.24675 -1.21138
LeftFoot  5.22827 0.20627 -1.5631
LeftToes  -2.53752e-010 -2.07034e-011 -2.70101e-011
138
root  10.556 33.6158 3.7421 -103.719 -87.7089 105.055
RightUpLeg  -24.1377 -4.9503 -2.01331
RightLeg  64.7365 0.230714 -0.0937613
RightFoot  -35.6692 -0.0438969 0.93619
RightToes  1.45519e-009 0 -3.6325e-017
Spine  33.1867 -0.578004 3.7279
Spine1  5.39641 0.380757 -1.05619
HEad  -38.997 -1.81061 -3.16182
LeftShoulder1  0.347049 2.30265 -22.5261
LeftArm  1.61602 -21.8892 -67.2317
LeftForeArm  80.2455 -79.578 -87.1076
LeftHand  0.00834684 6.0076 6.29401
RightShoulder  -0.00848574 -3.50315 25.6238
RightArm  14.303 5.22496 50.8107
RightForeArm  153.649 72.3708 147.207
RightHand  -0.0912309 5.3208 -1.30358
LeftUpLeg  -48.6716 7.41312 -1.4189
LeftLeg  38.524 -1.73416 -1.12185
LeftFoot  4.95894 0.225747 -1.76659
LeftToes  -2.53752e-010 -2.07034e-011 -2.70101e-011
139
root  9.67406 33.4127 3.9051 -118.406 -87.3792 119.82
RightUpLeg  -23.2017 -3.85038 -2.41219
RightLeg  66.1176 0.085634 -0.45003
RightFoot  -36.6854 0.16536 1.84416
RightToes  1.45519e-009 0 -3.6325e-017
Spine  33.5704 0.0486694 2.50926
Spine1  5.52509 0.660619 -0.730813
HEad  -39.8252 -1.8461 -2.37788
LeftShoulder1  0.403584 2.1049 -22.4994
LeftArm  1.89519 -22.2022 -67.2642
LeftForeArm  77.9921 -79.5434 -85.0447
LeftHand  0.0194738 6.20458 6.4602
RightShoulder  0.0610193 -3.28402 25.372
RightArm  14.443 4.00278 50.9152
RightForeArm  152.294 73.0542 145.623
RightHand  -0.116556 5.18186 -1.58846
LeftUpLeg  -49.6684 8.22169 -1.79065
LeftLeg  42.836 -2.03481 -1.61177
LeftFoot  3.48059 -0.144349 0.953494
LeftToes  -2.53752e-010 -2.07034e-011 -2.70101e-011
140
root  8.73246 33.4009 4.08668 -125.234 -86.8095 126.462
RightUpLeg  -21.8164 -2.74188 -3.23598
RightLeg  67.1913 0.182835 -0.21748
RightFoot  -36.3528 0.734728 4.43661
RightToes  1.45519e-009 0 -3.6325e-017
Spine  33.5899 0.324937 1.33328
Spine1  6.04442 0.825853 -1.3063
HEad  -39.9746 -1.87135 -1.46985
LeftShoulder1  0.427166 2.01024 -22.2311
LeftArm  2.05002 -22.1715 -66.9949
LeftForeArm  75.1616 -79.4813 -82.4339
LeftHand  0.00190617 5.91594 6.0269
RightShoulder  0.0890183 -3.19582 25.502
RightArm  15.009 3.31909 51.2051
RightForeArm  149.57 74.1863 142.652
RightHand  -0.0841152 5.50812 -1.21175
LeftUpLeg  -49.286 9.05759 -2.44827
LeftLeg  45.6063 -1.90247 -1.66796
LeftFoot  1.58973 -0.32166 2.74354
LeftToes  -2.53752e-010 -2.07034e-011 -2.70101e-011
